<?xml version="1.0" encoding="UTF-8"?>
<!DOCTYPE svg PUBLIC "-//W3C//DTD SVG 1.1//EN" "http://www.w3.org/Graphics/SVG/1.1/DTD/svg11.dtd">
<svg width="173mm" height="85mm" viewBox="0 0 17300 8500" version="1.1" xmlns="http://www.w3.org/2000/svg" stroke-width="28.222" stroke-linejoin="round" xml:space="preserve">
 <path fill="rgb(255,255,255)" stroke="none" d="M 8638,8502 L 7,8502 7,0 17268,0 17268,8502 8638,8502 Z"/>
 <path fill="none" stroke="rgb(179,179,179)" stroke-linejoin="round" d="M 6758,7535 L 1147,7535 1147,877 12368,877 12368,7535 6758,7535 Z"/>
 <path fill="none" stroke="rgb(179,179,179)" stroke-width="18" stroke-linejoin="round" d="M 12368,7534 L 1147,7534"/>
 <path fill="none" stroke="rgb(179,179,179)" stroke-width="18" stroke-linejoin="round" d="M 12368,6582 L 1147,6582"/>
 <path fill="none" stroke="rgb(179,179,179)" stroke-width="18" stroke-linejoin="round" d="M 12368,5631 L 1147,5631"/>
 <path fill="none" stroke="rgb(179,179,179)" stroke-width="18" stroke-linejoin="round" d="M 12368,4680 L 1147,4680"/>
 <path fill="none" stroke="rgb(179,179,179)" stroke-width="18" stroke-linejoin="round" d="M 12368,3729 L 1147,3729"/>
 <path fill="none" stroke="rgb(179,179,179)" stroke-width="18" stroke-linejoin="round" d="M 12368,2778 L 1147,2778"/>
 <path fill="none" stroke="rgb(179,179,179)" stroke-width="18" stroke-linejoin="round" d="M 12368,1827 L 1147,1827"/>
 <path fill="none" stroke="rgb(179,179,179)" stroke-width="18" stroke-linejoin="round" d="M 12368,876 L 1147,876"/>
 <path fill="none" stroke="rgb(179,179,179)" stroke-width="18" stroke-linejoin="round" d="M 1147,7684 L 1147,7534"/>
 <path fill="none" stroke="rgb(179,179,179)" stroke-width="18" stroke-linejoin="round" d="M 4887,7684 L 4887,7534"/>
 <path fill="none" stroke="rgb(179,179,179)" stroke-width="18" stroke-linejoin="round" d="M 8628,7684 L 8628,7534"/>
 <path fill="none" stroke="rgb(179,179,179)" stroke-width="18" stroke-linejoin="round" d="M 12368,7684 L 12368,7534"/>
 <path fill="none" stroke="rgb(179,179,179)" stroke-width="18" stroke-linejoin="round" d="M 1147,7534 L 12368,7534"/>
 <path fill="none" stroke="rgb(179,179,179)" stroke-width="18" stroke-linejoin="round" d="M 997,7534 L 1147,7534"/>
 <path fill="none" stroke="rgb(179,179,179)" stroke-width="18" stroke-linejoin="round" d="M 997,6582 L 1147,6582"/>
 <path fill="none" stroke="rgb(179,179,179)" stroke-width="18" stroke-linejoin="round" d="M 997,5631 L 1147,5631"/>
 <path fill="none" stroke="rgb(179,179,179)" stroke-width="18" stroke-linejoin="round" d="M 997,4680 L 1147,4680"/>
 <path fill="none" stroke="rgb(179,179,179)" stroke-width="18" stroke-linejoin="round" d="M 997,3729 L 1147,3729"/>
 <path fill="none" stroke="rgb(179,179,179)" stroke-width="18" stroke-linejoin="round" d="M 997,2778 L 1147,2778"/>
 <path fill="none" stroke="rgb(179,179,179)" stroke-width="18" stroke-linejoin="round" d="M 997,1827 L 1147,1827"/>
 <path fill="none" stroke="rgb(179,179,179)" stroke-width="18" stroke-linejoin="round" d="M 997,876 L 1147,876"/>
 <path fill="none" stroke="rgb(179,179,179)" stroke-width="18" stroke-linejoin="round" d="M 1147,7534 L 1147,876"/>
 <path fill="none" stroke="rgb(0,69,134)" stroke-width="80" stroke-linejoin="round" d="M 1147,7523 L 4887,7492 8628,7360 12368,6140"/>
 <path fill="rgb(0,69,134)" stroke="none" d="M 1006,7382 L 1006,7664 1288,7664 1288,7382 1006,7382 Z"/>
 <path fill="none" stroke="rgb(0,69,134)" stroke-linejoin="round" d="M 1006,7382 L 1006,7664 1288,7664 1288,7382 1006,7382 Z"/>
 <path fill="rgb(0,69,134)" stroke="none" d="M 4746,7351 L 4746,7633 5028,7633 5028,7351 4746,7351 Z"/>
 <path fill="none" stroke="rgb(0,69,134)" stroke-linejoin="round" d="M 4746,7351 L 4746,7633 5028,7633 5028,7351 4746,7351 Z"/>
 <path fill="rgb(0,69,134)" stroke="none" d="M 8487,7219 L 8487,7501 8768,7501 8768,7219 8487,7219 Z"/>
 <path fill="none" stroke="rgb(0,69,134)" stroke-linejoin="round" d="M 8487,7219 L 8487,7501 8768,7501 8768,7219 8487,7219 Z"/>
 <path fill="rgb(0,69,134)" stroke="none" d="M 12227,5999 L 12227,6281 12509,6281 12509,5999 12227,5999 Z"/>
 <path fill="none" stroke="rgb(0,69,134)" stroke-linejoin="round" d="M 12227,5999 L 12227,6281 12509,6281 12509,5999 12227,5999 Z"/>
 <path fill="none" stroke="rgb(255,66,14)" stroke-width="80" stroke-linejoin="round" d="M 1147,7479 L 4887,6854 8628,1827 12368,1827"/>
 <path fill="rgb(255,66,14)" stroke="none" d="M 1006,7479 L 1147,7620 1288,7479 1147,7338 1006,7479 Z"/>
 <path fill="none" stroke="rgb(255,66,14)" stroke-linejoin="round" d="M 1006,7479 L 1147,7620 1288,7479 1147,7338 1006,7479 Z"/>
 <path fill="rgb(255,66,14)" stroke="none" d="M 4746,6854 L 4887,6995 5028,6854 4887,6713 4746,6854 Z"/>
 <path fill="none" stroke="rgb(255,66,14)" stroke-linejoin="round" d="M 4746,6854 L 4887,6995 5028,6854 4887,6713 4746,6854 Z"/>
 <path fill="rgb(255,66,14)" stroke="none" d="M 8487,1827 L 8628,1968 8768,1827 8628,1686 8487,1827 Z"/>
 <path fill="none" stroke="rgb(255,66,14)" stroke-linejoin="round" d="M 8487,1827 L 8628,1968 8768,1827 8628,1686 8487,1827 Z"/>
 <path fill="rgb(255,66,14)" stroke="none" d="M 12227,1827 L 12368,1968 12509,1827 12368,1686 12227,1827 Z"/>
 <path fill="none" stroke="rgb(255,66,14)" stroke-linejoin="round" d="M 12227,1827 L 12368,1968 12509,1827 12368,1686 12227,1827 Z"/>
 <path fill="none" stroke="rgb(255,211,32)" stroke-width="80" stroke-linejoin="round" d="M 1147,7533 L 4887,7533 8628,7533 12368,7533"/>
 <path fill="rgb(255,211,32)" stroke="none" d="M 1006,7674 L 1288,7674 1147,7392 1006,7674 Z"/>
 <path fill="none" stroke="rgb(255,211,32)" stroke-linejoin="round" d="M 1006,7674 L 1288,7674 1147,7392 1006,7674 Z"/>
 <path fill="rgb(255,211,32)" stroke="none" d="M 4746,7674 L 5028,7674 4887,7392 4746,7674 Z"/>
 <path fill="none" stroke="rgb(255,211,32)" stroke-linejoin="round" d="M 4746,7674 L 5028,7674 4887,7392 4746,7674 Z"/>
 <path fill="rgb(255,211,32)" stroke="none" d="M 8487,7674 L 8768,7674 8628,7392 8487,7674 Z"/>
 <path fill="none" stroke="rgb(255,211,32)" stroke-linejoin="round" d="M 8487,7674 L 8768,7674 8628,7392 8487,7674 Z"/>
 <path fill="rgb(255,211,32)" stroke="none" d="M 12227,7674 L 12509,7674 12368,7392 12227,7674 Z"/>
 <path fill="none" stroke="rgb(255,211,32)" stroke-linejoin="round" d="M 12227,7674 L 12509,7674 12368,7392 12227,7674 Z"/>
 <path fill="none" stroke="rgb(87,157,28)" stroke-width="80" stroke-linejoin="round" d="M 1147,7533 L 4887,7533 8628,7533 12368,7533"/>
 <path fill="rgb(87,157,28)" stroke="none" d="M 1006,7674 L 1288,7674 1147,7392 1006,7674 Z"/>
 <path fill="none" stroke="rgb(87,157,28)" stroke-linejoin="round" d="M 1006,7674 L 1288,7674 1147,7392 1006,7674 Z"/>
 <path fill="rgb(87,157,28)" stroke="none" d="M 4746,7674 L 5028,7674 4887,7392 4746,7674 Z"/>
 <path fill="none" stroke="rgb(87,157,28)" stroke-linejoin="round" d="M 4746,7674 L 5028,7674 4887,7392 4746,7674 Z"/>
 <path fill="rgb(87,157,28)" stroke="none" d="M 8487,7674 L 8768,7674 8628,7392 8487,7674 Z"/>
 <path fill="none" stroke="rgb(87,157,28)" stroke-linejoin="round" d="M 8487,7674 L 8768,7674 8628,7392 8487,7674 Z"/>
 <path fill="rgb(87,157,28)" stroke="none" d="M 12227,7674 L 12509,7674 12368,7392 12227,7674 Z"/>
 <path fill="none" stroke="rgb(87,157,28)" stroke-linejoin="round" d="M 12227,7674 L 12509,7674 12368,7392 12227,7674 Z"/>
 <text class="TextShape"><tspan class="TextParagraph" font-family="Arial" font-size="423px" font-weight="400"><tspan class="TextPosition" x="1028" y="8154"><tspan fill="rgb(0,0,0)" stroke="none">5</tspan></tspan></tspan></text>
 <text class="TextShape"><tspan class="TextParagraph" font-family="Arial" font-size="423px" font-weight="400"><tspan class="TextPosition" x="4649" y="8154"><tspan fill="rgb(0,0,0)" stroke="none">10</tspan></tspan></tspan></text>
 <text class="TextShape"><tspan class="TextParagraph" font-family="Arial" font-size="423px" font-weight="400"><tspan class="TextPosition" x="8390" y="8154"><tspan fill="rgb(0,0,0)" stroke="none">15</tspan></tspan></tspan></text>
 <text class="TextShape"><tspan class="TextParagraph" font-family="Arial" font-size="423px" font-weight="400"><tspan class="TextPosition" x="12131" y="8154"><tspan fill="rgb(0,0,0)" stroke="none">20</tspan></tspan></tspan></text>
 <text class="TextShape"><tspan class="TextParagraph" font-family="Arial" font-size="423px" font-weight="400"><tspan class="TextPosition" x="659" y="7680"><tspan fill="rgb(0,0,0)" stroke="none">0</tspan></tspan></tspan></text>
 <text class="TextShape"><tspan class="TextParagraph" font-family="Arial" font-size="423px" font-weight="400"><tspan class="TextPosition" x="421" y="6728"><tspan fill="rgb(0,0,0)" stroke="none">20</tspan></tspan></tspan></text>
 <text class="TextShape"><tspan class="TextParagraph" font-family="Arial" font-size="423px" font-weight="400"><tspan class="TextPosition" x="421" y="5777"><tspan fill="rgb(0,0,0)" stroke="none">40</tspan></tspan></tspan></text>
 <text class="TextShape"><tspan class="TextParagraph" font-family="Arial" font-size="423px" font-weight="400"><tspan class="TextPosition" x="421" y="4826"><tspan fill="rgb(0,0,0)" stroke="none">60</tspan></tspan></tspan></text>
 <text class="TextShape"><tspan class="TextParagraph" font-family="Arial" font-size="423px" font-weight="400"><tspan class="TextPosition" x="421" y="3874"><tspan fill="rgb(0,0,0)" stroke="none">80</tspan></tspan></tspan></text>
 <text class="TextShape"><tspan class="TextParagraph" font-family="Arial" font-size="423px" font-weight="400"><tspan class="TextPosition" x="183" y="2923"><tspan fill="rgb(0,0,0)" stroke="none">100</tspan></tspan></tspan></text>
 <text class="TextShape"><tspan class="TextParagraph" font-family="Arial" font-size="423px" font-weight="400"><tspan class="TextPosition" x="183" y="1972"><tspan fill="rgb(0,0,0)" stroke="none">120</tspan></tspan></tspan></text>
 <text class="TextShape"><tspan class="TextParagraph" font-family="Arial" font-size="423px" font-weight="400"><tspan class="TextPosition" x="183" y="1021"><tspan fill="rgb(0,0,0)" stroke="none">140</tspan></tspan></tspan></text>
 <path fill="none" stroke="rgb(0,69,134)" stroke-width="80" stroke-linejoin="round" d="M 12746,3315 L 13546,3315"/>
 <path fill="rgb(0,69,134)" stroke="none" d="M 12998,3167 L 12998,3463 13294,3463 13294,3167 12998,3167 Z"/>
 <path fill="none" stroke="rgb(0,69,134)" stroke-linejoin="round" d="M 12998,3167 L 12998,3463 13294,3463 13294,3167 12998,3167 Z"/>
 <path fill="none" stroke="rgb(255,66,14)" stroke-width="80" stroke-linejoin="round" d="M 12746,3938 L 13546,3938"/>
 <path fill="rgb(255,66,14)" stroke="none" d="M 12998,3938 L 13146,4086 13294,3938 13146,3790 12998,3938 Z"/>
 <path fill="none" stroke="rgb(255,66,14)" stroke-linejoin="round" d="M 12998,3938 L 13146,4086 13294,3938 13146,3790 12998,3938 Z"/>
 <path fill="none" stroke="rgb(255,211,32)" stroke-width="80" stroke-linejoin="round" d="M 12746,4560 L 13546,4560"/>
 <path fill="rgb(255,211,32)" stroke="none" d="M 12998,4708 L 13294,4708 13146,4412 12998,4708 Z"/>
 <path fill="none" stroke="rgb(255,211,32)" stroke-linejoin="round" d="M 12998,4708 L 13294,4708 13146,4412 12998,4708 Z"/>
 <path fill="none" stroke="rgb(87,157,28)" stroke-width="80" stroke-linejoin="round" d="M 12746,5183 L 13546,5183"/>
 <path fill="rgb(87,157,28)" stroke="none" d="M 12998,5331 L 13294,5331 13146,5035 12998,5331 Z"/>
 <path fill="none" stroke="rgb(87,157,28)" stroke-linejoin="round" d="M 12998,5331 L 13294,5331 13146,5035 12998,5331 Z"/>
 <text class="TextShape"><tspan class="TextParagraph" font-family="Calibri" font-size="494px" font-weight="400"><tspan class="TextPosition" x="13654" y="3433"><tspan fill="rgb(0,0,0)" stroke="none">BNCE Deep</tspan></tspan></tspan></text>
 <text class="TextShape"><tspan class="TextParagraph" font-family="Calibri" font-size="494px" font-weight="400"><tspan class="TextPosition" x="13654" y="4056"><tspan fill="rgb(0,0,0)" stroke="none">BNCE Shallow</tspan></tspan></tspan></text>
 <text class="TextShape"><tspan class="TextParagraph" font-family="Calibri" font-size="494px" font-weight="400"><tspan class="TextPosition" x="13654" y="4678"><tspan fill="rgb(0,0,0)" stroke="none">eMoflon Deep</tspan></tspan></tspan></text>
 <text class="TextShape"><tspan class="TextParagraph" font-family="Calibri" font-size="494px" font-weight="400"><tspan class="TextPosition" x="13654" y="5301"><tspan fill="rgb(0,0,0)" stroke="none">eMoflon Shallow</tspan></tspan></tspan></text>
 <text class="TextShape"><tspan class="TextParagraph" font-family="Arial" font-size="423px" font-weight="400"><tspan class="TextPosition" x="12834" y="7841"><tspan fill="rgb(0,0,0)" stroke="none">Size</tspan></tspan></tspan></text>
 <text class="TextShape"><tspan class="TextParagraph" font-family="Arial" font-size="423px" font-weight="400"><tspan class="TextPosition" x="84" y="542"><tspan fill="rgb(0,0,0)" stroke="none">Runtime (s)</tspan></tspan></tspan></text>
</svg>